<?xml version="1.0"?>
<svg xmlns="http://www.w3.org/2000/svg" xmlns:xlink="http://www.w3.org/1999/xlink" version="1.1" viewBox="0 0 224 224" width="50px" height="50px"><g fill="none" fill-rule="nonzero" stroke="none" stroke-width="1" stroke-linecap="butt" stroke-linejoin="miter" stroke-miterlimit="10" stroke-dasharray="" stroke-dashoffset="0" font-family="none" font-weight="none" font-size="none" text-anchor="none" style="mix-blend-mode: normal"><path d="M0,224v-224h224v224z" fill="none"/><g fill="#ffffff"><g id="surface1"><path d="M192.08,38.64c-0.14,0.035 -0.28,0.0875 -0.42,0.14c-1.1725,0.2975 -2.1875,1.05 -2.8,2.1l-91.56,141.96l-63,-56.84c-1.1025,-1.4 -2.94,-2.0125 -4.6725,-1.5575c-1.7325,0.455 -3.01,1.9075 -3.2725,3.675c-0.2625,1.7675 0.5425,3.5175 2.065,4.4625l66.78,60.48c0.98,0.8575 2.2925,1.2425 3.5875,1.05c1.295,-0.1925 2.4325,-0.9275 3.1325,-2.03l94.5,-146.44c1.0325,-1.47 1.085,-3.4125 0.14,-4.935c-0.945,-1.5225 -2.7125,-2.3275 -4.48,-2.065z"/></g></g></g></svg>
